<?xml version="1.0" encoding="UTF-8"?>
<svg width="100pt" height="100pt" version="1.1" viewBox="0 0 100 100" xmlns="http://www.w3.org/2000/svg">
 <path d="m94.852 28.312-23.152-23.141c-1.4219-1.418-3.3164-2.207-5.3281-2.207h-32.742c-2.0117 0-3.9062 0.78906-5.3281 2.207l-23.152 23.141c-1.4258 1.4219-2.207 3.3164-2.207 5.3281v32.719c0 2.0117 0.78125 3.9062 2.207 5.3281l23.152 23.141c1.4219 1.418 3.3164 2.207 5.3281 2.207h32.742c2.0117 0 3.9062-0.78906 5.3281-2.207l23.152-23.141c1.4219-1.4219 2.207-3.3164 2.207-5.3281v-32.719c0-2.0117-0.78125-3.9062-2.207-5.3281zm-15.441 29.039h-58.82v-14.707h58.824z"/>
</svg>
