<svg width="330" height="359" viewBox="0 0 330 359" fill="none" xmlns="http://www.w3.org/2000/svg">
<path d="M266.341 146.668C222.236 143.511 186.622 157.583 159.283 188.371V188.394C156.126 191.995 151.125 193.373 146.567 191.906C134.63 187.838 122.737 189.505 110.955 197.575L96.8384 211.691H96.8606C95.0822 213.447 94.5487 216.093 95.4823 218.405C96.416 220.717 98.639 222.25 101.129 222.317C114.422 222.673 126.605 224.585 135.763 230.876C131.673 243.191 131.184 257.641 132.673 273.091C111.266 265.71 90.4358 268.467 69.9422 277.492C67.5636 278.582 66.1408 281.027 66.3409 283.628C66.541 286.229 68.3639 288.43 70.8759 289.119C86.3928 293.231 100.375 301.812 111.09 313.772C123.05 324.487 131.609 338.469 135.743 353.986C136.432 356.498 138.633 358.321 141.234 358.521C143.835 358.721 146.28 357.276 147.369 354.92C156.395 334.401 159.085 313.55 151.638 292.189C167.177 293.611 181.626 293.122 193.919 289.032C200.211 298.169 202.145 310.351 202.5 323.622H202.522C202.567 326.134 204.101 328.357 206.413 329.291C208.725 330.224 211.37 329.669 213.126 327.912L227.131 313.908C235.245 302.081 236.935 290.166 232.866 278.228H232.889C231.421 273.671 232.8 268.669 236.423 265.513C267.257 238.214 281.284 202.56 278.171 158.495V158.517C277.727 152.181 272.676 147.134 266.341 146.668ZM254.447 192.617C249.935 197.13 243.176 198.486 237.286 196.063C231.395 193.64 227.549 187.882 227.549 181.525C227.549 175.144 231.395 169.387 237.286 166.964C243.177 164.541 249.935 165.897 254.447 170.432C260.538 176.567 260.538 186.482 254.447 192.617Z" fill="#ffffff"/>
<path d="M327.46 59.4149C325.749 52.4344 322.992 45.7436 319.28 39.5854C303.874 13.1762 274.708 -2.11819 244.228 0.23785C224.687 1.97182 206.437 10.6414 192.743 24.669L102.376 115.035C79.5906 137.777 42.7129 137.777 19.9264 115.035L18.148 113.257C13.991 109.122 7.25502 109.122 3.12057 113.257C-1.03648 117.414 -1.03648 124.127 3.09834 128.284L4.899 130.085C35.9765 161.096 86.3304 161.096 117.408 130.085L209.129 38.3642C226.135 21.358 251.833 16.5344 273.84 26.2266C295.848 35.9188 309.653 58.1049 308.608 82.1353C307.675 97.2965 301.139 111.568 290.224 122.149L288.023 124.35C286 126.351 284.867 129.063 284.867 131.886C284.867 134.709 285.978 137.444 287.979 139.444C289.979 141.445 292.692 142.556 295.537 142.556C298.36 142.534 301.072 141.4 303.051 139.4L306.607 135.843C326.614 115.858 334.529 86.7819 327.46 59.4149Z" fill="#ffffff"/>
</svg>
