<svg width="360" height="360" viewBox="0 0 360 360" fill="none" xmlns="http://www.w3.org/2000/svg">
<path d="M120 15H90V30H120V15Z" fill="#ffffff"/>
<path d="M270 15H240V30H270V15Z" fill="#ffffff"/>
<path d="M330 75V60H285V30H270V105H240V30H225V60H135V30H120V105H90V30H75V60H30V75H15V330H30V345H330V330H345V75H330ZM315 120V165H270V120H315ZM315 240H270V195H315V240ZM315 315H270V270H315V315ZM45 270H90V315H45V270ZM45 195H90V240H45V195ZM240 240H195V195H240V240ZM165 240H120V195H165V240ZM120 270H165V315H120V270ZM195 270H240V315H195V270ZM240 165H195V120H240V165ZM165 120V165H120V120H165ZM90 165H45V120H90V165Z" fill="#ffffff"/>
</svg>
